<svg width="24" height="25" fill="none" xmlns="http://www.w3.org/2000/svg"><path d="M12 24.439a1.31 1.31 0 01-.928-.4c-.97-.97-1.904-1.881-2.729-2.686l-.004-.004c-2.418-2.358-4.506-4.395-5.959-6.401C.756 12.705 0 10.578 0 8.255c0-2.257.676-4.34 1.904-5.863C3.146.849 4.85 0 6.704 0 8.09 0 9.36.501 10.476 1.49A8.436 8.436 0 0112 3.312c.45-.712.96-1.323 1.525-1.822C14.64.5 15.91 0 17.295 0c1.854 0 3.559.85 4.801 2.392C23.324 3.916 24 5.998 24 8.255c0 2.323-.756 4.45-2.38 6.693-1.453 2.006-3.54 4.043-5.958 6.4-.827.806-1.763 1.72-2.734 2.692a1.31 1.31 0 01-.928.399zM6.705 1.609c-1.457 0-2.794.665-3.768 1.873C1.95 4.71 1.406 6.404 1.406 8.255c0 1.954.634 3.702 2.057 5.666 1.375 1.9 3.42 3.894 5.788 6.204l.004.004c.828.807 1.766 1.723 2.743 2.7.982-.98 1.922-1.896 2.752-2.705 2.368-2.31 4.413-4.304 5.787-6.203 1.423-1.964 2.057-3.712 2.057-5.666 0-1.851-.544-3.546-1.531-4.773-.973-1.208-2.311-1.873-3.767-1.873-1.067 0-2.047.388-2.912 1.154-.77.682-1.307 1.545-1.622 2.148-.162.31-.447.496-.762.496-.316 0-.6-.185-.762-.496-.315-.603-.852-1.466-1.623-2.148-.864-.766-1.844-1.154-2.91-1.154z" fill="#fff"/></svg>