<svg width="67" height="18" fill="none" xmlns="http://www.w3.org/2000/svg"><path d="M3.24.992h12.336V17H11.4V4.496H7.368v5.832c0 2.56-.56 4.4-1.68 5.52-.944.912-2.192 1.368-3.744 1.368-.64 0-1.272-.072-1.896-.216v-3.84c.336.112.656.168.96.168.576 0 1.04-.16 1.392-.48.56-.512.84-1.52.84-3.024V.992zm32.634 8.016c0 2.368-.84 4.36-2.52 5.976-1.664 1.584-3.768 2.376-6.312 2.376-2.544 0-4.648-.792-6.312-2.376-1.68-1.616-2.52-3.608-2.52-5.976 0-1.104.208-2.184.624-3.24a7.817 7.817 0 011.896-2.76C22.394 1.424 24.498.632 27.042.632c2.544 0 4.648.792 6.312 2.376a7.553 7.553 0 011.872 2.76 8.485 8.485 0 01.648 3.24zm-8.832-4.344c-1.312 0-2.392.424-3.24 1.272-.848.832-1.272 1.88-1.272 3.144 0 1.168.424 2.16 1.272 2.976.88.848 1.96 1.272 3.24 1.272 1.312 0 2.384-.416 3.216-1.248.864-.864 1.296-1.888 1.296-3.072 0-1.216-.432-2.24-1.296-3.072-.896-.848-1.968-1.272-3.216-1.272zM47.884.992V4.52h-5.208V17h-4.152V.992h9.36zm18.459 8.016c0 2.368-.84 4.36-2.52 5.976-1.664 1.584-3.768 2.376-6.312 2.376-2.544 0-4.648-.792-6.312-2.376-1.68-1.616-2.52-3.608-2.52-5.976a8.77 8.77 0 01.624-3.24 7.819 7.819 0 011.896-2.76C52.863 1.424 54.967.632 57.51.632c2.544 0 4.648.792 6.312 2.376a7.553 7.553 0 011.872 2.76 8.485 8.485 0 01.648 3.24zM57.51 4.664c-1.312 0-2.392.424-3.24 1.272-.848.832-1.272 1.88-1.272 3.144 0 1.168.424 2.16 1.272 2.976.88.848 1.96 1.272 3.24 1.272 1.312 0 2.384-.416 3.216-1.248.864-.864 1.296-1.888 1.296-3.072 0-1.216-.432-2.24-1.296-3.072-.896-.848-1.968-1.272-3.216-1.272z" fill="#000"/></svg>