<svg width="411" height="56" fill="none" xmlns="http://www.w3.org/2000/svg"><g clip-path="url(#clip0)"><path d="M20.534 36.044l2.844-16h4.445l-2.756 16h-4.533z" fill="#3C58BF"/><path d="M20.534 36.044l3.644-16h3.645l-2.756 16h-4.533z" fill="#293688"/><path d="M41.156 20.222c-.89-.355-2.311-.71-4.09-.71-4.444 0-7.644 2.221-7.644 5.421 0 2.4 2.223 3.645 4 4.445 1.778.8 2.311 1.333 2.311 2.044 0 1.067-1.422 1.6-2.666 1.6-1.778 0-2.756-.266-4.267-.889l-.622-.266-.622 3.644c1.066.445 3.022.89 5.066.89 4.711 0 7.823-2.223 7.823-5.6 0-1.867-1.156-3.29-3.823-4.445-1.6-.8-2.577-1.245-2.577-2.045 0-.71.8-1.422 2.577-1.422 1.511 0 2.578.267 3.378.622l.445.178.71-3.467z" fill="#3C58BF"/><path d="M41.156 20.222c-.89-.355-2.311-.71-4.09-.71-4.444 0-6.844 2.221-6.844 5.421 0 2.4 1.423 3.645 3.2 4.445 1.778.8 2.311 1.333 2.311 2.044 0 1.067-1.422 1.6-2.666 1.6-1.778 0-2.756-.266-4.267-.889l-.622-.266-.622 3.644c1.066.445 3.022.89 5.066.89 4.711 0 7.823-2.223 7.823-5.6 0-1.867-1.156-3.29-3.823-4.445-1.6-.8-2.577-1.245-2.577-2.045 0-.71.8-1.422 2.577-1.422 1.511 0 2.578.267 3.378.622l.445.178.71-3.467z" fill="#293688"/><path d="M48.8 20.044c-1.067 0-1.867.09-2.311 1.156l-6.667 14.844h4.8l.89-2.666H51.2l.533 2.666H56l-3.733-16H48.8zm-2.044 10.667c.266-.8 1.777-4.711 1.777-4.711s.356-.978.623-1.6l.266 1.511s.89 4 1.067 4.889h-3.733v-.089z" fill="#3C58BF"/><path d="M49.867 20.044c-1.067 0-1.867.09-2.311 1.156l-7.734 14.844h4.8l.89-2.666H51.2l.533 2.666H56l-3.733-16h-2.4zm-3.111 10.667C47.11 29.822 48.533 26 48.533 26s.356-.978.623-1.6l.266 1.511s.89 4 1.067 4.889h-3.733v-.089z" fill="#293688"/><path d="M12.356 31.244l-.445-2.31c-.8-2.667-3.378-5.6-6.222-7.023l4 14.222h4.8l7.2-16h-4.8l-4.533 11.111z" fill="#3C58BF"/><path d="M12.356 31.244l-.445-2.31c-.8-2.667-3.378-5.6-6.222-7.023l4 14.222h4.8l7.2-16h-3.911l-5.422 11.111z" fill="#293688"/><path d="M0 20.044l.8.178c5.689 1.333 9.6 4.711 11.111 8.711l-1.6-7.555c-.267-1.067-1.067-1.334-2.044-1.334H0z" fill="#FFBC00"/><path d="M0 20.044c5.689 1.334 10.4 4.8 11.911 8.8l-1.511-6.31c-.267-1.067-1.156-1.69-2.133-1.69L0 20.044z" fill="#F7981D"/><path d="M0 20.044c5.689 1.334 10.4 4.8 11.911 8.8l-1.067-3.466c-.266-1.067-.622-2.134-1.866-2.578L0 20.044z" fill="#ED7C00"/><path d="M16.8 30.711l-3.022-3.022-1.422 3.378L12 28.844c-.8-2.666-3.378-5.6-6.222-7.022l4 14.223h4.8L16.8 30.71zm8.267 5.333l-3.822-3.91-.711 3.91h4.533zm10.222-5.511c.356.356.533.622.444.978 0 1.067-1.422 1.6-2.666 1.6-1.778 0-2.756-.267-4.267-.889l-.622-.267-.622 3.645c1.066.444 3.022.889 5.066.889 2.845 0 5.156-.8 6.49-2.222l-3.823-3.734zm5.155 5.511h4.178l.889-2.666H51.2l.533 2.666H56l-1.511-6.488-5.334-5.156.267 1.422s.889 4 1.067 4.889h-3.734c.356-.889 1.778-4.711 1.778-4.711s.356-.978.622-1.6" fill="#051244"/></g><path d="M122.886 23.067h1.99l-.995-2.49-.995 2.49z" fill="#2FABF7"/><path d="M147.586 20.933c-.181-.089-.453-.089-.724-.089h-1.81v1.422h1.81c.271 0 .543 0 .724-.088.181-.09.271-.356.271-.623.09-.355-.09-.533-.271-.622z" fill="#228FE0"/><path d="M166.948 18.267v1.066l-.543-1.066h-4.253v1.066l-.542-1.066h-5.791c-.995 0-1.809.177-2.533.533v-.533h-4.072v.533c-.452-.356-.995-.533-1.719-.533h-14.566l-.996 2.222-.995-2.222h-4.614v1.066l-.543-1.066h-3.891l-1.809 4.177L118 27.067h4.614l.543-1.423h1.267l.543 1.423h5.247V26l.453 1.067h2.623l.453-1.067v1.067h12.576v-2.311h.181c.181 0 .181 0 .181.266v1.956h6.514v-.534c.543.267 1.357.534 2.443.534h2.714l.543-1.423h1.267l.543 1.423h5.247v-1.334l.815 1.334h4.252v-8.711h-4.071zm-30.581 7.466h-1.538v-4.889l-2.172 4.89H131.3l-2.171-4.89v4.89h-3.077l-.633-1.334h-3.076l-.543 1.422h-1.719l2.714-6.311h2.262l2.533 5.956V19.51h2.443l1.991 4.267 1.809-4.267h2.534v6.222zm6.152-4.889h-3.529V22h3.439v1.244h-3.439v1.245h3.529v1.333h-5.067v-6.311h5.067v1.333zm6.786 2.578c.181.356.271.622.271 1.156v1.244h-1.538v-.8c0-.355 0-.889-.271-1.244-.272-.267-.543-.267-1.086-.267h-1.629v2.311h-1.538v-6.311h3.438c.815 0 1.358 0 1.81.267.452.266.724.71.724 1.422 0 .978-.634 1.511-1.086 1.689.452.089.724.355.905.533zm2.714 2.311h-1.538v-6.31h1.538v6.31zm17.824 0h-2.172l-2.895-4.71v4.71H161.7l-.543-1.333h-3.167l-.542 1.422h-1.719c-.724 0-1.629-.178-2.172-.711-.543-.533-.814-1.244-.814-2.4 0-.889.181-1.778.814-2.489.453-.533 1.267-.711 2.262-.711h1.448v1.333h-1.448c-.543 0-.814.09-1.176.356-.272.267-.453.8-.453 1.422 0 .711.091 1.156.453 1.511.271.267.633.356 1.086.356h.633l2.081-4.89h2.262l2.533 5.956V19.6h2.262l2.624 4.355V19.6h1.538v6.133h.181z" fill="#0571C1"/><path d="M158.533 23.067h2.081l-.995-2.49-1.086 2.49zm-15.381 12.8V30.8l-2.352 2.489 2.352 2.578z" fill="#228FE0"/><path d="M133.472 31.422v1.156h3.347v1.244h-3.347v1.334h3.709l1.719-1.867-1.628-1.867h-3.8z" fill="#2FABF7"/><path d="M146.59 31.422h-1.9v1.6h1.991c.543 0 .905-.266.905-.8-.091-.533-.453-.8-.996-.8z" fill="#228FE0"/><path d="M174.548 32.933v-4h-3.8c-.815 0-1.448.178-1.9.533v-.533h-4.162c-.634 0-1.448.178-1.81.533v-.533h-7.328v.533c-.543-.444-1.538-.533-1.991-.533h-4.886v.533c-.452-.444-1.538-.533-2.081-.533h-5.428l-1.267 1.333-1.176-1.333h-8.143v8.711h7.962l1.267-1.333 1.176 1.333h4.886V35.6h.633c.633 0 1.448 0 2.081-.267v2.4h4.071v-2.311h.181c.272 0 .272 0 .272.267v2.044h12.305c.814 0 1.628-.178 2.08-.533v.533h3.891c.814 0 1.629-.089 2.171-.444.905-.534 1.448-1.511 1.448-2.667 0-.622-.181-1.244-.452-1.689zM146.5 34.355h-1.81v2.134h-2.895l-1.809-2.045-1.9 2.045h-5.972v-6.311h6.062l1.81 2.044 1.9-2.044h4.795c1.176 0 2.533.355 2.533 2.044-.09 1.778-1.357 2.133-2.714 2.133zm9.048-.355c.181.266.271.622.271 1.155V36.4h-1.538v-.8c0-.356 0-.978-.271-1.245-.181-.266-.543-.266-1.086-.266h-1.629v2.31h-1.538v-6.31h3.438c.724 0 1.357 0 1.81.266.452.267.814.711.814 1.423 0 .977-.633 1.51-1.086 1.688.453.178.724.356.815.534zm6.242-2.578h-3.528v1.156h3.438v1.244h-3.438v1.244h3.528V36.4h-5.066v-6.311h5.066v1.333zm3.8 4.978h-2.895v-1.334h2.895c.272 0 .453 0 .634-.177a.675.675 0 00.181-.445.675.675 0 00-.181-.444c-.091-.09-.272-.178-.543-.178-1.448-.089-3.167 0-3.167-1.956 0-.889.543-1.866 2.172-1.866h2.985v1.51h-2.804c-.272 0-.453 0-.634.09-.181.089-.181.266-.181.444 0 .267.181.356.362.445.181.089.362.089.543.089h.814c.815 0 1.358.177 1.719.533.272.267.453.711.453 1.333 0 1.334-.814 1.956-2.353 1.956zm7.781-.622c-.361.355-.995.622-1.9.622h-2.895v-1.334h2.895c.272 0 .453 0 .634-.177a.675.675 0 00.181-.445.675.675 0 00-.181-.444c-.091-.09-.272-.178-.543-.178-1.448-.089-3.167 0-3.167-1.956 0-.889.543-1.866 2.172-1.866h2.985v1.51h-2.714c-.271 0-.452 0-.633.09-.181.089-.181.266-.181.444 0 .267.09.356.362.445.181.089.362.089.543.089h.814c.814 0 1.357.177 1.719.533.09 0 .09.089.09.089.272.355.362.8.362 1.244 0 .534-.181.978-.543 1.334z" fill="#0571C1"/><path d="M153.919 31.6c-.181-.09-.452-.09-.724-.09h-1.809v1.423h1.809c.272 0 .543 0 .724-.089.181-.089.271-.355.271-.622.091-.356-.09-.534-.271-.622zm-6.333-10.667c-.181-.089-.453-.089-.724-.089h-1.81v1.422h1.81c.271 0 .543 0 .724-.088.181-.09.271-.356.271-.623.09-.355-.09-.533-.271-.622zm10.947 2.134h2.081l-.995-2.49-1.086 2.49zm-15.381 12.8V30.8l-2.352 2.489 2.352 2.578zm3.438-4.445h-1.9v1.6h1.991c.543 0 .905-.266.905-.8-.091-.533-.453-.8-.996-.8z" fill="#228FE0"/><path d="M153.919 31.6c-.181-.09-.452-.09-.724-.09h-1.809v1.423h1.809c.272 0 .543 0 .724-.089.181-.089.271-.355.271-.622.091-.356-.09-.534-.271-.622z" fill="#228FE0"/><path d="M145.957 36.222l-1.267-1.333v1.51h-2.985l-1.81-2.044-1.99 2.045h-5.972v-6.222h6.062l1.9 2.044.905-1.067-2.262-2.222h-7.962v8.711h7.962l1.357-1.333 1.176 1.333h4.886v-1.422zm-9.409-9.244l-1.177-1.245h-.542V25.2l-1.358-1.333-.904 1.866H131.3l-2.171-4.889v4.89h-3.077l-.633-1.334h-3.076l-.633 1.333h-1.629l2.714-6.222h2.262l2.533 5.956V19.51h1.358l-1.267-1.244h-1.357v1.066l-.453-1.066h-3.981l-1.809 4.177L118 26.978h4.705l.543-1.334h1.266l.634 1.334h5.066V25.91l.453 1.067h2.623l.453-1.067v1.067h2.805z" fill="#2FABF7"/><path d="M132.386 22.889l-1.448-1.422 1.086 2.31.362-.888z" fill="#2FABF7"/><path d="M173.552 37.2A3.245 3.245 0 00175 34.8l-1.267-1.245c.091.267.181.534.181.89 0 .533-.181.977-.543 1.333-.362.355-.995.622-1.9.622h-2.895v-1.334h2.895c.272 0 .453 0 .634-.177a.675.675 0 00.181-.445.675.675 0 00-.181-.444c-.091-.09-.272-.178-.543-.178-1.448-.089-3.167 0-3.167-1.956 0-.888.543-1.688 1.9-1.866l-.995-.978c-.181.089-.272.178-.362.178v-.534h-4.162c-.633 0-1.448.178-1.81.534v-.534h-7.419v.534c-.542-.445-1.538-.534-1.99-.534h-4.886v.534c-.452-.445-1.538-.534-2.081-.534h-5.428L139.895 30l-1.176-1.334h-.995l2.714 2.667 1.357-1.422h4.795c1.176 0 2.534.355 2.534 2.044 0 1.778-1.267 2.134-2.624 2.134h-1.81v1.333l1.357 1.333v-1.333h.453c.633 0 1.447 0 2.081-.267v2.4h4.071v-2.31h.181c.272 0 .272 0 .272.266v2.044h12.304c.815 0 1.629-.177 2.081-.533v.533h3.891c.724.09 1.538 0 2.171-.355zM155.547 34c.181.267.272.622.272 1.155V36.4h-1.538v-.8c0-.356 0-.978-.272-1.245-.181-.266-.543-.266-1.085-.266h-1.629v2.31h-1.538v-6.31h3.438c.724 0 1.357 0 1.81.266.452.267.814.712.814 1.423 0 .977-.633 1.51-1.086 1.689.453.177.724.355.814.533zm6.243-2.578h-3.528v1.156h3.438v1.244h-3.438v1.244h3.528V36.4h-5.066v-6.311h5.066v1.333zm3.8 4.978h-2.895v-1.334h2.895c.272 0 .453 0 .634-.177a.675.675 0 00.181-.445.675.675 0 00-.181-.444c-.091-.09-.272-.178-.543-.178-1.448-.089-3.167 0-3.167-1.956 0-.888.543-1.866 2.172-1.866h2.985v1.51h-2.805c-.271 0-.452 0-.633.09-.181.089-.181.266-.181.444 0 .267.181.356.362.445.181.089.362.089.543.089h.814c.815 0 1.357.177 1.719.533.272.267.453.711.453 1.333 0 1.334-.815 1.956-2.353 1.956z" fill="#228FE0"/><path d="M169.933 32.045c0 .266.091.355.362.444.181.089.362.089.543.089h.814c.543 0 .905.089 1.267.267l-1.357-1.334h-.815c-.271 0-.452 0-.633.09a.675.675 0 00-.181.444zm-3.166-5.335l.181.268h.09l-.271-.267zm-4.976-4.888l1.538 3.645v-2.134l-1.538-1.51z" fill="#228FE0"/><path d="M146.319 24.756h.181c.181 0 .181 0 .181.266v1.956h6.514v-.534c.543.267 1.357.534 2.443.534h2.714l.543-1.423h1.267l.543 1.423h5.247v-.89l-1.266-1.244v.978h-3.077l-.452-1.422h-3.167l-.542 1.422h-1.72c-.723 0-1.628-.178-2.171-.711-.543-.533-.814-1.244-.814-2.4 0-.889.181-1.778.814-2.489.452-.533 1.267-.711 2.262-.711h1.448v1.333h-1.448c-.543 0-.814.09-1.176.356-.272.267-.453.8-.453 1.422 0 .711.091 1.156.453 1.511.271.267.633.356 1.085.356h.634l2.081-4.89h.905l-1.267-1.244h-2.353c-.995 0-1.809.178-2.533.534v-.534h-3.981v.534c-.452-.356-.995-.534-1.719-.534h-14.567l-.995 2.223-.995-2.223h-3.981l1.267 1.245h1.809l1.538 3.289.543.533 1.629-3.911h2.533v6.311h-1.538v-4.889L133.2 24.49l2.624 2.578h10.404l.091-2.311zm4.162-5.245h1.538v6.311h-1.538v-6.311zm-7.962 1.333h-3.529V22h3.438v1.244h-3.438v1.245h3.529v1.333h-5.067v-6.311h5.067v1.333zm2.533 4.89h-1.538v-6.312h3.438c.815 0 1.357 0 1.81.267.452.267.724.71.724 1.422 0 .978-.634 1.511-1.086 1.689.362.089.633.355.724.533.181.356.271.623.271 1.156v1.244h-1.538v-.8c0-.355 0-.889-.271-1.244-.091-.178-.362-.178-.905-.178h-1.629v2.222z" fill="#228FE0"/><path d="M258.949 30.935h.271c.27 0 .451-.09.541-.27l.813-1.175h2.078l-.452.723h2.529l-.361 1.174h-2.981c-.361.542-.722.723-1.264.723h-1.536l.362-1.175zm-.362 1.626h5.42l-.362 1.265h-2.167l-.362 1.264h2.168l-.361 1.265h-2.168l-.542 1.806c-.09.271 0 .452.452.361h1.716l-.361 1.175h-3.342c-.633 0-.813-.362-.633-1.084l.633-2.349h-1.355l.361-1.264h1.355l.361-1.265h-1.264l.451-1.174zm8.762-3.07l-.091.722s.994-.813 1.987-.813h3.433l-1.355 4.877c-.091.542-.542.813-1.445.813h-3.884l-.904 3.342c-.09.18 0 .271.181.271h.813l-.271.994h-1.987c-.723 0-1.084-.181-.903-.723l2.619-9.574h1.807v.09zm2.89 1.354h-3.071l-.361 1.265s.542-.362 1.354-.362h1.807l.271-.903zm-1.084 2.98c.271 0 .361-.09.361-.27l.181-.723h-3.071l-.271.994h2.8zm-2.077 1.536h1.806v.813h.452c.271 0 .361-.09.361-.27l.181-.543h1.445l-.181.723c-.181.632-.632.903-1.355.993h-.993v1.355c0 .18.18.361.542.361h.903l-.271 1.084H267.8c-.632 0-.903-.27-.903-.903l.181-3.613z" fill="#009DA5"/><path d="M261.026 31.839l.361-.362h2.981l.361-1.174H262.2l.451-.722h-2.077l-.813 1.083c-.09.181-.271.271-.542.271h-.271l-.09.271c.722.181 1.445.452 2.168.633zm6.232-1.626l.09-.723h-1.806l-.813 2.89c.452 0 .994.09 1.445.09 2.078 0 3.974-.27 5.871-.812l.632-2.168h-3.432c-.993 0-1.987.723-1.987.723zm2.71 1.535h-1.807c-.903 0-1.355.362-1.355.362l.362-1.265h3.071l-.271.903z" fill="#02CCCC"/><path d="M274.574 30.935l.452-1.445h2.077l-.09.542s1.084-.542 1.806-.542h2.619l-.451 1.445h-.361l-1.988 6.865H279l-.362 1.355h-.451l-.181.632h-1.987l.181-.632h-3.974l.361-1.355h.361l1.987-6.865h-.361zm2.258 0l-.542 1.897s.903-.361 1.716-.452c.181-.632.362-1.445.362-1.445h-1.536zm-.723 2.8l-.541 1.987s.993-.451 1.716-.541l.361-1.446h-1.536zm.362 4.065l.361-1.445h-1.535l-.362 1.445h1.536zm5.058-8.4h1.987l.09.723c0 .18.091.27.362.27h.361l-.361 1.265h-1.446c-.542 0-.813-.18-.903-.632l-.09-1.626zm-.542 2.71h6.322l-.361 1.264h-1.987l-.361 1.265h1.987l-.361 1.354h-2.258l-.542.813h1.083l.271 1.536c0 .18.181.27.362.27h.361l-.361 1.265h-1.174c-.633 0-.994-.18-.994-.632l-.271-1.445-.994 1.535c-.271.452-.632.633-1.083.633h-1.897l.361-1.265h.542c.271 0 .452-.09.632-.361l1.536-2.258h-1.987l.361-1.355h2.168l.361-1.265h-2.168l.452-1.354z" fill="#009DA5"/><path d="M277.103 29.58h-2.077l-.361 1.175c.812-.361 1.625-.723 2.438-1.174z" fill="#02CCCC"/><path d="M245.4 23.077c-.271 1.175-.813 2.078-1.626 2.71-.903.632-1.987.994-3.342.994-1.264 0-2.258-.362-2.8-.994-.451-.451-.632-1.084-.632-1.806 0-.271 0-.633.09-.994l1.445-6.955h2.168l-1.445 6.865c0 .18-.09.361-.09.542 0 .361.09.632.271.903.271.361.722.542 1.264.542.632 0 1.265-.18 1.626-.452.452-.361.723-.813.813-1.445l1.445-6.864h2.348l-1.535 6.954z" fill="#FF7F29"/><path d="M245.4 23.077c-.271 1.175-.813 2.078-1.626 2.71-.903.632-1.987.994-3.342.994-1.264 0-2.258-.362-2.8-.994-.451-.451-.632-1.084-.632-1.806 0-.271 0-.633.09-.994l3.162-6.955h.451l-1.445 6.865c0 .18-.09.361-.09.542 0 .361.09.632.271.903.271.361.722.542 1.264.542.632 0 1.265-.18 1.626-.452.452-.361.723-.813.813-1.445l3.161-6.864h.632l-1.535 6.954zm2.077-2.709h1.536l-.181.903.181-.271c.542-.542 1.084-.813 1.806-.813.633 0 1.084.18 1.445.542.271.361.362.903.271 1.535l-.812 4.246h-1.626l.722-3.884c.091-.362.091-.723-.09-.904-.09-.18-.361-.27-.723-.27-.451 0-.722.09-.993.36-.271.272-.452.633-.542 1.085l-.723 3.613h-1.625l1.354-6.142z" fill="#EA2227"/><path d="M265.181 20.368h1.535l-.181.903.181-.27c.542-.543 1.084-.814 1.806-.814.633 0 1.084.181 1.446.542.271.362.361.904.271 1.536l-.813 4.245H267.8l.813-3.884c.09-.361.09-.722-.091-.903-.09-.18-.361-.271-.722-.271-.452 0-.723.09-.994.361s-.451.633-.542 1.084l-.722 3.613h-1.626l1.265-6.142z" fill="#A5002F"/><path d="M254.613 20.368h1.716l-1.355 6.232h-1.716l1.355-6.232zm.542-2.258h1.716l-.362 1.535h-1.716l.362-1.535zm2.709 8.039c-.451-.452-.632-.994-.632-1.716v-.452c0-.18 0-.27.09-.452a4.542 4.542 0 011.265-2.438c.632-.633 1.445-.904 2.438-.904.813 0 1.355.181 1.807.633.452.451.632.993.632 1.806v.452c0 .18 0 .27-.09.451-.181.994-.632 1.807-1.265 2.349a3.669 3.669 0 01-2.438.903 2.91 2.91 0 01-1.807-.632zm3.252-1.265c.271-.361.542-.813.632-1.445 0-.09 0-.18.09-.361v-.271c0-.361-.09-.723-.271-.903-.18-.181-.451-.362-.812-.362-.452 0-.904.181-1.175.542a3.03 3.03 0 00-.632 1.536c0 .09 0 .18-.09.27v.272c0 .361.09.722.271.903.18.18.451.27.813.27.542 0 .903-.09 1.174-.45z" fill="#EA2227"/><path d="M272.858 16.484h4.516c.904 0 1.536.18 1.987.542.452.361.723.903.723 1.716v.452c0 .18-.09.36-.09.541-.181.994-.633 1.717-1.355 2.349-.723.542-1.536.903-2.529.903h-2.439l-.722 3.613h-2.078l1.987-10.116zm1.084 4.697h1.987c.542 0 .903-.09 1.265-.362.271-.27.451-.632.632-1.084v-.451c0-.361-.09-.632-.361-.813-.271-.18-.633-.271-1.175-.271h-1.716l-.632 2.98z" fill="#1398E2"/><path d="M274.574 16.484h2.71c.903 0 1.535.18 1.987.542.452.361.723.903.723 1.716v.452c0 .18-.091.36-.091.541-.18.994-.632 1.717-1.354 2.349-.723.542-1.536.903-2.53.903h-2.438l-.723 3.613h-2.077l3.793-10.116zm-.632 4.697h1.987c.542 0 .903-.09 1.265-.362.271-.27.451-.632.632-1.084v-.451c0-.361-.09-.632-.361-.813-.271-.18-.633-.271-1.175-.271h-1.716l-.632 2.98z" fill="#0872B9"/><path d="M289.297 27.774c-.632 1.445-1.265 2.258-1.626 2.62-.361.36-1.084 1.264-2.89 1.174l.18-1.084c1.446-.452 2.258-2.53 2.71-3.433l-.542-6.683h2.168l.09 4.245 1.807-4.245H293l-3.703 7.406z" fill="#055093"/><path d="M284.239 20.82l-.723.541c-.722-.632-1.445-.994-2.8-.361-1.806.813-3.342 7.316 1.626 5.148l.271.361 1.987.09 1.265-5.87-1.626.09zm-1.174 3.25c-.362.904-.994 1.536-1.536 1.356-.542-.181-.722-1.084-.451-1.987.361-.904.993-1.536 1.535-1.355.632.18.813 1.084.452 1.987z" fill="#0872B9"/><path d="M280.987 26.6c.361-.09.813-.18 1.355-.361l.271.361 1.987.09 1.264-5.87h-.451c-.904 2.257-2.529 4.244-4.426 5.78z" fill="#055093"/><path d="M262.832 20.82c-.451-.452-1.083-.633-1.806-.633h-.452c-.18.542-.451 1.084-.722 1.626.271-.18.542-.27.903-.27s.632.09.813.36c.181.181.271.543.271.904v.27c0 .091 0 .181-.09.362-.091.632-.362 1.174-.633 1.445-.271.362-.722.452-1.174.452-.361 0-.632-.09-.813-.271-.18-.18-.271-.542-.271-.903v-.271c0-.09 0-.18.091-.271 0-.18.09-.271.09-.361-.452.722-1.084 1.445-1.716 2.077.09.361.271.632.542.903.451.452 1.084.632 1.806.632.903 0 1.716-.27 2.439-.903.632-.542 1.084-1.355 1.264-2.348 0-.18.091-.271.091-.452v-.451c0-.904-.181-1.446-.633-1.897z" fill="#A5002F"/><path d="M398.289 24.578h-3.022c-.178 0-.356.177-.445.355l-1.244 7.822c0 .178.089.267.266.267h1.6c.178 0 .267-.089.267-.267l.356-2.222c0-.178.177-.355.444-.355h.978c2.044 0 3.2-.978 3.466-2.934.178-.8 0-1.51-.355-1.955-.533-.445-1.333-.711-2.311-.711zm.355 2.933c-.177 1.067-.977 1.067-1.777 1.067h-.534l.356-2.045c0-.089.089-.178.266-.178h.178c.534 0 1.067 0 1.334.356.177.089.177.356.177.8z" fill="#139AD6"/><path d="M376.511 24.578h-3.022c-.178 0-.356.177-.445.355l-1.244 7.822c0 .178.089.267.266.267h1.423c.177 0 .355-.178.444-.355l.356-2.134c0-.178.177-.355.444-.355h.978c2.044 0 3.2-.978 3.467-2.934.177-.8 0-1.51-.356-1.955-.533-.445-1.244-.711-2.311-.711zm.355 2.933c-.177 1.067-.977 1.067-1.777 1.067h-.445l.356-2.045c0-.089.089-.178.266-.178h.178c.534 0 1.067 0 1.334.356.088.089.177.356.088.8zm8.8-.089h-1.422c-.089 0-.267.089-.267.178l-.089.444-.088-.178c-.356-.444-.978-.622-1.689-.622-1.6 0-3.023 1.245-3.289 2.933-.178.89.089 1.69.533 2.223.445.533 1.067.71 1.867.71 1.333 0 2.044-.8 2.044-.8l-.089.445c0 .178.089.267.267.267h1.333c.178 0 .356-.178.445-.356l.8-4.977c-.089-.09-.267-.267-.356-.267zm-2.044 2.844c-.178.8-.8 1.423-1.689 1.423-.445 0-.8-.178-.978-.356-.178-.267-.267-.622-.267-1.067.089-.8.8-1.422 1.6-1.422.445 0 .712.178.978.356.267.266.356.71.356 1.066z" fill="#263B80"/><path d="M407.356 27.422h-1.423c-.088 0-.266.089-.266.178l-.089.444-.089-.178c-.356-.444-.978-.622-1.689-.622-1.6 0-3.022 1.245-3.289 2.933-.178.89.089 1.69.534 2.223.444.533 1.066.71 1.866.71 1.334 0 2.045-.8 2.045-.8l-.089.445c0 .178.089.267.266.267h1.334c.178 0 .355-.178.444-.356l.8-4.977c-.089-.09-.178-.267-.355-.267zm-2.045 2.844c-.178.8-.8 1.423-1.689 1.423-.444 0-.8-.178-.977-.356-.178-.267-.267-.622-.267-1.067.089-.8.8-1.422 1.6-1.422.444 0 .711.178.978.356.355.266.444.71.355 1.066z" fill="#139AD6"/><path d="M393.4 27.422h-1.511c-.178 0-.267.09-.356.178l-1.955 3.022-.889-2.844c-.089-.178-.178-.267-.444-.267h-1.423c-.177 0-.266.178-.266.356l1.6 4.71-1.511 2.134c-.089.178 0 .445.177.445h1.423c.177 0 .266-.09.355-.178l4.889-7.022c.267-.267.089-.534-.089-.534z" fill="#263B80"/><path d="M409.044 24.845l-1.244 8c0 .177.089.266.266.266h1.245c.178 0 .355-.178.444-.355L411 24.933c0-.177-.089-.266-.267-.266h-1.422c-.089-.09-.178 0-.267.177z" fill="#139AD6"/><path d="M365.222 21.91c-.622-.71-1.778-1.066-3.378-1.066H357.4c-.267 0-.533.267-.622.534L355 33.022c0 .267.178.445.356.445h2.755l.711-4.356v.178c.089-.267.356-.534.622-.534h1.334c2.578 0 4.533-1.066 5.155-4v-.266c-.089 0-.089 0 0 0 .089-1.156-.089-1.867-.711-2.578z" fill="#263B80"/><path d="M365.844 24.49v.266c-.622 3.022-2.578 4-5.155 4h-1.334c-.266 0-.533.267-.622.533l-.889 5.422c0 .178.089.356.356.356h2.311c.267 0 .533-.178.533-.444v-.09l.445-2.755V31.6c0-.266.266-.444.533-.444h.356c2.222 0 4-.889 4.444-3.556.178-1.066.089-2.044-.444-2.666a.91.91 0 00-.534-.445z" fill="#139AD6"/><path d="M365.222 24.222c-.089 0-.178-.089-.266-.089-.089 0-.178 0-.267-.088-.356-.09-.711-.09-1.156-.09h-3.466c-.089 0-.178 0-.267.09a.489.489 0 00-.267.444l-.711 4.622v.178c.089-.267.356-.533.622-.533h1.334c2.578 0 4.533-1.067 5.155-4 0-.09 0-.178.089-.267-.178-.089-.266-.178-.444-.178-.267-.089-.267-.089-.356-.089z" fill="#232C65"/><defs><clipPath id="clip0"><path fill="#fff" d="M0 0h56v56H0z"/></clipPath></defs></svg>