<svg width="14" height="18" fill="none" xmlns="http://www.w3.org/2000/svg"><path d="M13.94 17.388L12.722 4.977a.49.49 0 00-.474-.457H9.964v-.56c0-1.74-1.322-3.157-2.946-3.157-1.625 0-2.946 1.416-2.946 3.157v.559H1.786a.49.49 0 00-.474.457L.096 17.387a.535.535 0 00.12.396c.09.107.22.168.354.168h12.895a.462.462 0 00.354-.168.534.534 0 00.12-.395zM5.023 3.96c0-1.178.894-2.137 1.994-2.137S9.01 2.782 9.01 3.96v.559H5.024V3.96zM1.1 16.931L2.215 5.54h1.857v1.124c0 .282.213.51.476.51s.476-.228.476-.51V5.54h3.987v1.125c0 .282.214.51.477.51s.476-.228.476-.51V5.54h1.857l1.116 11.39H1.099z" fill="#000"/></svg>