<svg width="17" height="15" fill="none" xmlns="http://www.w3.org/2000/svg"><path d="M8.5 15.25a.997.997 0 01-.657-.247c-.687-.6-1.35-1.165-1.933-1.663l-.003-.003c-1.713-1.46-3.192-2.72-4.22-3.961C.535 7.988 0 6.672 0 5.234c0-1.397.479-2.686 1.349-3.629a4.571 4.571 0 013.4-1.48c.981 0 1.88.31 2.671.922.4.309.761.687 1.08 1.128.319-.441.68-.82 1.08-1.128a4.276 4.276 0 012.671-.922c1.313 0 2.52.526 3.4 1.48.87.943 1.349 2.232 1.349 3.629 0 1.438-.536 2.754-1.686 4.142-1.029 1.241-2.508 2.502-4.22 3.961-.585.499-1.249 1.064-1.937 1.666a.998.998 0 01-.657.246zM4.75 1.12a3.59 3.59 0 00-2.67 1.16C1.382 3.04.997 4.088.997 5.234c0 1.21.45 2.29 1.457 3.506.974 1.176 2.422 2.41 4.1 3.84l.003.002c.586.5 1.25 1.066 1.943 1.671a236.54 236.54 0 011.949-1.674c1.677-1.43 3.125-2.663 4.1-3.839 1.007-1.215 1.456-2.297 1.456-3.506 0-1.146-.385-2.195-1.085-2.954a3.586 3.586 0 00-2.668-1.16 3.3 3.3 0 00-2.062.715c-.546.422-.926.956-1.15 1.33a.624.624 0 01-.539.306.624.624 0 01-.54-.307c-.223-.373-.603-.907-1.15-1.33a3.303 3.303 0 00-2.06-.713z" fill="#000"/></svg>