<svg width="29" height="28" fill="none" xmlns="http://www.w3.org/2000/svg"><g clip-path="url(#clip0)" fill="#000"><path d="M12.993 16.623L17.547 14l-4.554-2.623v5.246z"/><path d="M26.717 0H2.757a2.02 2.02 0 00-2.02 2.02v23.96A2.02 2.02 0 002.757 28h23.96a2.02 2.02 0 002.02-2.02V2.02A2.02 2.02 0 0026.717 0zm-3.232 14.014s0 2.84-.36 4.209a2.192 2.192 0 01-1.543 1.542c-1.369.36-6.845.36-6.845.36s-5.462 0-6.846-.375a2.192 2.192 0 01-1.542-1.542C5.99 16.854 5.99 14 5.99 14s0-2.84.36-4.208a2.237 2.237 0 011.542-1.557c1.37-.36 6.846-.36 6.846-.36s5.476 0 6.845.375c.75.201 1.34.792 1.543 1.542.374 1.369.36 4.222.36 4.222z"/></g><defs><clipPath id="clip0"><path fill="#fff" transform="translate(.737)" d="M0 0h28v28H0z"/></clipPath></defs></svg>