<svg width="31" height="28" fill="none" xmlns="http://www.w3.org/2000/svg"><g clip-path="url(#clip0)" fill="#000"><path d="M25.788 0H4.948C2.569 0 .632 1.84.632 4.102v19.796C.631 26.16 2.568 28 4.95 28h20.839c2.38 0 4.317-1.84 4.317-4.102V4.102C30.105 1.84 28.168 0 25.788 0zM15.426 21.328c-4.286 0-7.772-3.312-7.772-7.383 0-4.07 3.486-7.383 7.772-7.383 4.285 0 7.771 3.312 7.771 7.383s-3.486 7.383-7.771 7.383zM24.06 8.203c-1.429 0-2.59-1.104-2.59-2.46 0-1.358 1.161-2.462 2.59-2.462 1.428 0 2.59 1.104 2.59 2.461 0 1.357-1.162 2.461-2.59 2.461z"/><path d="M24.06 4.922c-.476 0-.863.368-.863.82 0 .453.387.82.864.82.476 0 .863-.367.863-.82 0-.452-.387-.82-.863-.82zm-8.634 3.281c-3.333 0-6.045 2.576-6.045 5.742s2.712 5.742 6.045 5.742c3.332 0 6.044-2.576 6.044-5.742s-2.712-5.742-6.044-5.742z"/></g><defs><clipPath id="clip0"><path fill="#fff" transform="translate(.631)" d="M0 0h29.474v28H0z"/></clipPath></defs></svg>